<?xml version="1.0" encoding="UTF-8" standalone="no"?>
<!-- Created with Inkscape (http://www.inkscape.org/) -->

<svg
   width="210mm"
   height="210mm"
   viewBox="0 0 210 210"
   version="1.1"
   id="svg5"
   inkscape:version="1.4.2 (f4327f4, 2025-05-13)"
   sodipodi:docname="logoBg.svg"
   xmlns:inkscape="http://www.inkscape.org/namespaces/inkscape"
   xmlns:sodipodi="http://sodipodi.sourceforge.net/DTD/sodipodi-0.dtd"
   xmlns="http://www.w3.org/2000/svg"
   xmlns:svg="http://www.w3.org/2000/svg">
  <sodipodi:namedview
     id="namedview7"
     pagecolor="#8a8a8a"
     bordercolor="#000000"
     borderopacity="0.25"
     inkscape:showpageshadow="2"
     inkscape:pageopacity="1"
     inkscape:pagecheckerboard="0"
     inkscape:deskcolor="#d1d1d1"
     inkscape:document-units="mm"
     showgrid="false"
     inkscape:zoom="0.74564396"
     inkscape:cx="91.19634"
     inkscape:cy="335.95122"
     inkscape:window-width="1920"
     inkscape:window-height="1009"
     inkscape:window-x="1912"
     inkscape:window-y="-8"
     inkscape:window-maximized="1"
     inkscape:current-layer="layer1" />
  <defs
     id="defs2" />
  <g
     inkscape:label="Layer 1"
     inkscape:groupmode="layer"
     id="layer1">
    <circle
       style="fill:#020606;stroke-width:0.268377;fill-opacity:1"
       id="path1"
       cx="105"
       cy="105"
       r="105" />
    <path
       id="path1120"
       style="fill:none;fill-opacity:1;stroke:#ffffff;stroke-width:5.94025;stroke-linecap:round;stroke-dasharray:none;stroke-opacity:1"
       d="m 132.39672,152.57108 a 54.084816,71.914493 45 0 1 -78.247606,3.28013 54.084816,71.914493 45 0 1 3.280141,-78.247589 m 0,0 a 54.084816,71.914493 45 0 1 3.315926,-4.245419 m 0,0 a 54.084816,71.914493 45 0 1 6.011424,-6.601951 54.084816,71.914493 45 0 1 6.598771,-6.00879 m 0,0 a 54.084816,71.914493 45 0 1 4.247723,-3.317914 m 0,0 a 54.084816,71.914493 45 0 1 78.248471,-3.280779 v 0 a 54.084816,71.914493 45 0 1 -3.28034,78.247852" />
    <path
       id="rect739"
       style="fill:#ffffff;fill-opacity:1;stroke:none;stroke-width:1.6676"
       d="m 37.985369,34.773849 c -0.886102,-0.01505 -1.715135,0.27374 -2.326281,0.884886 -1.396908,1.396908 -1.110557,3.932677 0.64201,5.685247 l 19.277765,19.277766 c 2.225155,-2.723408 2.677423,-3.834587 5.04299,-5.04299 L 41.34433,36.30075 c -0.985811,-0.985828 -2.21968,-1.507558 -3.358961,-1.526901 z m 66.258601,64.426552 c -0.79862,-0.798609 -5.792779,4.293669 -5.043227,5.043229 l 69.455667,69.45567 c 1.75258,1.75258 4.28798,2.03856 5.68489,0.64165 1.3969,-1.3969 1.11092,-3.93231 -0.64164,-5.68488 z"
       sodipodi:nodetypes="sssccssccsssc" />
    <path
       id="path1106"
       style="fill:none;fill-opacity:1;stroke:#ffffff;stroke-width:5.7055;stroke-linecap:round;stroke-dasharray:none;stroke-opacity:1"
       d="M 118.80154,138.99072 A 35.480668,47.17726 45 0 1 71.585975,138.3667 35.480668,47.17726 45 0 1 70.96196,91.151159 m 0,0 a 35.480668,47.17726 45 0 1 3.065477,-4.506733 m 0,0 a 35.480668,47.17726 45 0 1 5.829283,-6.7257 35.480668,47.17726 45 0 1 6.791548,-5.878474 m 0,0 a 35.480668,47.17726 45 0 1 4.508177,-3.057642 m 0,0 a 35.480668,47.17726 45 0 1 47.148265,0.66538 v 0 a 35.480668,47.17726 45 0 1 0.67156,47.13815" />
    <path
       id="path1090"
       style="fill:none;fill-opacity:1;stroke:#ffffff;stroke-width:5.7055;stroke-linecap:round;stroke-dasharray:none;stroke-opacity:1"
       d="m 104.00373,124.18113 a 16.752239,22.274798 45 0 1 -14.809053,-3.42312 16.752239,22.274798 45 0 1 -3.423119,-14.80907 m 0,0 a 16.752239,22.274798 45 0 1 2.02956,-5.52317 m 0,0 a 16.752239,22.274798 45 0 1 5.298601,-7.264044 16.752239,22.274798 45 0 1 7.336711,-5.335308 m 0,0 a 16.752239,22.274798 45 0 1 5.54792,-2.01517 m 0,0 A 16.752239,22.274798 45 0 1 120.696,89.25669 v 0 a 16.752239,22.274798 45 0 1 3.44542,14.7118" />
    <ellipse
       style="fill:#ffffff;fill-opacity:1;stroke:none;stroke-width:11.411;stroke-linecap:round;stroke-dasharray:none;stroke-opacity:1"
       id="path13431"
       cx="0.00024396509"
       cy="143.8569"
       rx="3.5661008"
       ry="3.5659339"
       transform="rotate(-45)" />
    <circle
       style="fill:#ffffff;fill-opacity:1;stroke:none;stroke-width:11.4106;stroke-linecap:round;stroke-dasharray:none;stroke-opacity:1"
       id="ellipse13433"
       cx="7.5288423e-05"
       cy="82.166237"
       r="3.5659339"
       transform="rotate(-45)" />
  </g>
</svg>
