<?xml version="1.0" encoding="UTF-8" standalone="no"?>
<!-- Created with Inkscape (http://www.inkscape.org/) -->

<svg
   width="22mm"
   height="21.457216mm"
   viewBox="0 0 22 21.457216"
   version="1.1"
   id="svg1"
   xmlns:inkscape="http://www.inkscape.org/namespaces/inkscape"
   xmlns:sodipodi="http://sodipodi.sourceforge.net/DTD/sodipodi-0.dtd"
   xmlns="http://www.w3.org/2000/svg"
   xmlns:svg="http://www.w3.org/2000/svg">
  <sodipodi:namedview
     id="namedview1"
     pagecolor="#ffffff"
     bordercolor="#000000"
     borderopacity="0.25"
     inkscape:showpageshadow="2"
     inkscape:pageopacity="0.0"
     inkscape:pagecheckerboard="0"
     inkscape:deskcolor="#d1d1d1"
     inkscape:document-units="mm">
    <inkscape:page
       x="0"
       y="0"
       width="22"
       height="21.457216"
       id="page2"
       margin="0"
       bleed="0" />
  </sodipodi:namedview>
  <defs
     id="defs1" />
  <path
     id="path1"
     d="M 11,0 C 4.9225,0 0,4.9225 0,11 c 0,4.8675 3.14875,8.9787 7.52125,10.4362 0.55,0.0963 0.75625,-0.2337 0.75625,-0.5225 0,-0.2612 -0.01375,-1.1275 -0.01375,-2.0487 C 5.5,19.3737 4.785,18.1912 4.565,17.5725 4.44125,17.2562 3.905,16.28 3.4375,16.0187 3.0525,15.8125 2.5025,15.3037 3.42375,15.29 4.29,15.2762 4.90875,16.0875 5.115,16.4175 6.105,18.0812 7.68625,17.6137 8.31875,17.325 8.415,16.61 8.70375,16.1287 9.02,15.8537 6.5725,15.5787 4.015,14.63 4.015,10.4225 c 0,-1.1963 0.42625,-2.18625 1.1275,-2.95625 -0.11,-0.275 -0.495,-1.4025 0.11,-2.915 0,0 0.92125,-0.28875 3.025,1.1275 0.88,-0.2475 1.815,-0.37125 2.75,-0.37125 0.935,0 1.87,0.12375 2.75,0.37125 2.1038,-1.43 3.025,-1.1275 3.025,-1.1275 0.605,1.5125 0.22,2.64 0.11,2.915 0.7013,0.77 1.1275,1.74625 1.1275,2.95625 0,4.2212 -2.5712,5.1562 -5.0187,5.4312 0.3987,0.3438 0.7425,1.0038 0.7425,2.035 0,1.4713 -0.0138,2.6538 -0.0138,3.025 0,0.2888 0.2063,0.6325 0.7563,0.5225 C 18.8513,19.9787 22,15.8537 22,11 22,4.9225 17.0775,0 11,0 Z"
     style="fill:#ffffff" />
</svg>
