<?xml version="1.0" encoding="UTF-8" standalone="no"?>
<!-- Created with Inkscape (http://www.inkscape.org/) -->

<svg
   width="20mm"
   height="20mm"
   viewBox="0 0 20 20"
   version="1.1"
   id="svg1"
   inkscape:export-filename="github.svg"
   inkscape:export-xdpi="96"
   inkscape:export-ydpi="96"
   xmlns:inkscape="http://www.inkscape.org/namespaces/inkscape"
   xmlns:sodipodi="http://sodipodi.sourceforge.net/DTD/sodipodi-0.dtd"
   xmlns="http://www.w3.org/2000/svg"
   xmlns:svg="http://www.w3.org/2000/svg">
  <sodipodi:namedview
     id="namedview1"
     pagecolor="#ffffff"
     bordercolor="#000000"
     borderopacity="0.25"
     inkscape:showpageshadow="2"
     inkscape:pageopacity="0.0"
     inkscape:pagecheckerboard="0"
     inkscape:deskcolor="#d1d1d1"
     inkscape:document-units="mm">
    <inkscape:page
       x="0"
       y="0"
       width="20"
       height="20"
       id="page2"
       margin="0"
       bleed="0" />
  </sodipodi:namedview>
  <defs
     id="defs1" />
  <path
     id="path1"
     d="M 18.5,0 H 1.5 A 1.5,1.5 0 0 0 0,1.5 v 17 A 1.5,1.5 0 0 0 1.5,20 h 17 A 1.5,1.5 0 0 0 20,18.5 V 1.5 A 1.5,1.5 0 0 0 18.5,0 Z M 6,17 H 3 V 8 H 6 Z M 4.5,6.25 A 1.75,1.75 0 1 1 6.3,4.5 1.78,1.78 0 0 1 4.5,6.25 Z M 17,17 h -3 v -4.74 c 0,-1.42 -0.6,-1.93 -1.38,-1.93 A 1.74,1.74 0 0 0 11,12.19 0.66,0.66 0 0 0 11,12.33 V 17 H 8 V 8 h 2.9 v 1.3 a 3.11,3.11 0 0 1 2.7,-1.4 c 1.55,0 3.36,0.86 3.36,3.66 z"
     style="fill:#ffffff" />
</svg>
